<svg width="20" height="20" viewBox="0 0 20 20" fill="none" xmlns="http://www.w3.org/2000/svg">
<path d="M9.99999 9.99984C10.4583 9.99984 10.8507 9.83664 11.1771 9.51025C11.5035 9.18386 11.6667 8.7915 11.6667 8.33317C11.6667 7.87484 11.5035 7.48248 11.1771 7.15609C10.8507 6.8297 10.4583 6.6665 9.99999 6.6665C9.54166 6.6665 9.1493 6.8297 8.82291 7.15609C8.49652 7.48248 8.33333 7.87484 8.33333 8.33317C8.33333 8.7915 8.49652 9.18386 8.82291 9.51025C9.1493 9.83664 9.54166 9.99984 9.99999 9.99984ZM9.99999 16.1248C11.6944 14.5693 12.9514 13.1561 13.7708 11.8853C14.5903 10.6144 15 9.48595 15 8.49984C15 6.98595 14.5174 5.74636 13.5521 4.78109C12.5868 3.81581 11.4028 3.33317 9.99999 3.33317C8.59722 3.33317 7.41319 3.81581 6.44791 4.78109C5.48263 5.74636 4.99999 6.98595 4.99999 8.49984C4.99999 9.48595 5.40972 10.6144 6.22916 11.8853C7.04861 13.1561 8.30555 14.5693 9.99999 16.1248ZM9.99999 18.3332C7.76388 16.4304 6.09374 14.663 4.98958 13.0311C3.88541 11.3991 3.33333 9.88873 3.33333 8.49984C3.33333 6.4165 4.00347 4.75678 5.34374 3.52067C6.68402 2.28456 8.23611 1.6665 9.99999 1.6665C11.7639 1.6665 13.316 2.28456 14.6562 3.52067C15.9965 4.75678 16.6667 6.4165 16.6667 8.49984C16.6667 9.88873 16.1146 11.3991 15.0104 13.0311C13.9062 14.663 12.2361 16.4304 9.99999 18.3332Z" fill="#F26F21"/>
</svg>
