<svg width="72" height="72" viewBox="0 0 72 72" fill="none" xmlns="http://www.w3.org/2000/svg">
<path d="M27 52.2L52.2 36L27 19.8V52.2ZM36 72C31.02 72 26.34 71.055 21.96 69.165C17.58 67.275 13.77 64.71 10.53 61.47C7.29 58.23 4.725 54.42 2.835 50.04C0.945 45.66 0 40.98 0 36C0 31.02 0.945 26.34 2.835 21.96C4.725 17.58 7.29 13.77 10.53 10.53C13.77 7.29 17.58 4.725 21.96 2.835C26.34 0.945 31.02 0 36 0C40.98 0 45.66 0.945 50.04 2.835C54.42 4.725 58.23 7.29 61.47 10.53C64.71 13.77 67.275 17.58 69.165 21.96C71.055 26.34 72 31.02 72 36C72 40.98 71.055 45.66 69.165 50.04C67.275 54.42 64.71 58.23 61.47 61.47C58.23 64.71 54.42 67.275 50.04 69.165C45.66 71.055 40.98 72 36 72ZM36 64.8C44.04 64.8 50.85 62.01 56.43 56.43C62.01 50.85 64.8 44.04 64.8 36C64.8 27.96 62.01 21.15 56.43 15.57C50.85 9.99 44.04 7.2 36 7.2C27.96 7.2 21.15 9.99 15.57 15.57C9.99 21.15 7.2 27.96 7.2 36C7.2 44.04 9.99 50.85 15.57 56.43C21.15 62.01 27.96 64.8 36 64.8Z" fill="white"/>
</svg>
