<svg width="20" height="20" viewBox="0 0 20 20" fill="none" xmlns="http://www.w3.org/2000/svg">
<path d="M9.16669 17.5V15.8333H15.8334V9.91667C15.8334 8.29167 15.2674 6.91319 14.1354 5.78125C13.0035 4.64931 11.625 4.08333 10 4.08333C8.37502 4.08333 6.99655 4.64931 5.8646 5.78125C4.73266 6.91319 4.16669 8.29167 4.16669 9.91667V15H3.33335C2.87502 15 2.48266 14.8368 2.15627 14.5104C1.82988 14.184 1.66669 13.7917 1.66669 13.3333V11.6667C1.66669 11.375 1.7396 11.1007 1.88544 10.8438C2.03127 10.5868 2.23613 10.3819 2.50002 10.2292L2.56252 9.125C2.67363 8.18056 2.94794 7.30556 3.38544 6.5C3.82294 5.69444 4.37155 4.99306 5.03127 4.39583C5.69099 3.79861 6.44794 3.33333 7.3021 3C8.15627 2.66667 9.05558 2.5 10 2.5C10.9445 2.5 11.8403 2.66667 12.6875 3C13.5347 3.33333 14.2917 3.79514 14.9584 4.38542C15.625 4.97569 16.1736 5.67361 16.6042 6.47917C17.0347 7.28472 17.3125 8.15972 17.4375 9.10417L17.5 10.1875C17.7639 10.3125 17.9688 10.5 18.1146 10.75C18.2604 11 18.3334 11.2639 18.3334 11.5417V13.4583C18.3334 13.7361 18.2604 14 18.1146 14.25C17.9688 14.5 17.7639 14.6875 17.5 14.8125V15.8333C17.5 16.2917 17.3368 16.684 17.0104 17.0104C16.684 17.3368 16.2917 17.5 15.8334 17.5H9.16669ZM7.50002 11.6667C7.26391 11.6667 7.06599 11.5868 6.90627 11.4271C6.74655 11.2674 6.66669 11.0694 6.66669 10.8333C6.66669 10.5972 6.74655 10.3993 6.90627 10.2396C7.06599 10.0799 7.26391 10 7.50002 10C7.73613 10 7.93405 10.0799 8.09377 10.2396C8.25349 10.3993 8.33335 10.5972 8.33335 10.8333C8.33335 11.0694 8.25349 11.2674 8.09377 11.4271C7.93405 11.5868 7.73613 11.6667 7.50002 11.6667ZM12.5 11.6667C12.2639 11.6667 12.066 11.5868 11.9063 11.4271C11.7465 11.2674 11.6667 11.0694 11.6667 10.8333C11.6667 10.5972 11.7465 10.3993 11.9063 10.2396C12.066 10.0799 12.2639 10 12.5 10C12.7361 10 12.934 10.0799 13.0938 10.2396C13.2535 10.3993 13.3334 10.5972 13.3334 10.8333C13.3334 11.0694 13.2535 11.2674 13.0938 11.4271C12.934 11.5868 12.7361 11.6667 12.5 11.6667ZM5.02085 10.375C4.92363 8.90278 5.36808 7.63889 6.35419 6.58333C7.3403 5.52778 8.56946 5 10.0417 5C11.2778 5 12.3646 5.39236 13.3021 6.17708C14.2396 6.96181 14.8056 7.96528 15 9.1875C13.7361 9.17361 12.5729 8.83333 11.5104 8.16667C10.4479 7.5 9.63196 6.59722 9.06252 5.45833C8.8403 6.56944 8.37155 7.55903 7.65627 8.42708C6.94099 9.29514 6.06252 9.94444 5.02085 10.375Z" fill="white"/>
</svg>
