<svg width="20" height="20" viewBox="0 0 20 20" fill="none" xmlns="http://www.w3.org/2000/svg">
<path d="M3.33335 16.6668C2.87502 16.6668 2.48266 16.5036 2.15627 16.1772C1.82988 15.8509 1.66669 15.4585 1.66669 15.0002V5.00016C1.66669 4.54183 1.82988 4.14947 2.15627 3.82308C2.48266 3.49669 2.87502 3.3335 3.33335 3.3335H16.6667C17.125 3.3335 17.5174 3.49669 17.8438 3.82308C18.1702 4.14947 18.3334 4.54183 18.3334 5.00016V15.0002C18.3334 15.4585 18.1702 15.8509 17.8438 16.1772C17.5174 16.5036 17.125 16.6668 16.6667 16.6668H3.33335ZM3.33335 15.0002H12.0834V12.0835H3.33335V15.0002ZM13.75 15.0002H16.6667V7.50016H13.75V15.0002ZM3.33335 10.4168H12.0834V7.50016H3.33335V10.4168Z" fill="white"/>
</svg>
